<svg xmlns="http://www.w3.org/2000/svg" version="1.1" viewBox="200.00 200.00 600.00 600.00" width="1024.00" height="1024.00">
<g stroke-width="2.00" fill="none" stroke-linecap="butt">
<path stroke="#90a08c" d="&#10;  M 558.89 583.91&#10;  A 1.47 1.47 0.0 0 1 560.03 583.12&#10;  Q 584.55 580.30 607.98 571.83&#10;  Q 661.90 552.33 681.34 500.29&#10;  C 687.77 483.10 690.22 462.46 689.52 444.50&#10;  C 688.06 407.14 678.76 366.94 666.92 332.01&#10;  Q 647.55 274.92 623.27 219.72&#10;  Q 622.92 218.93 622.34 219.57&#10;  C 591.12 254.11 558.96 287.82 530.89 325.15&#10;  Q 510.16 352.73 498.07 381.05&#10;  Q 474.21 436.97 493.35 496.17&#10;  C 496.53 506.01 502.46 521.01 506.16 533.58&#10;  Q 508.79 542.51 509.56 546.74&#10;  Q 522.20 615.68 506.89 684.03&#10;  Q 496.69 729.58 477.21 771.55&#10;  Q 476.81 772.42 477.77 772.42&#10;  L 501.89 772.36&#10;  Q 502.33 772.36 502.50 771.95&#10;  Q 516.13 737.98 524.90 702.49&#10;  C 528.98 686.00 532.19 668.16 535.73 651.02&#10;  Q 538.25 638.80 540.28 631.57&#10;  Q 547.27 606.76 558.89 583.91"/>
<path stroke="#b9ccac" d="&#10;  M 401.78 557.17&#10;  Q 387.09 547.07 373.40 531.35&#10;  Q 359.94 515.91 352.91 498.55&#10;  Q 352.71 498.06 353.21 497.89&#10;  Q 356.95 496.57 359.45 499.06&#10;  Q 384.59 524.15 409.34 542.17&#10;  C 424.48 553.20 447.49 564.49 466.66 577.74"/>
<path stroke="#90a08c" d="&#10;  M 466.66 577.74&#10;  L 484.95 593.87&#10;  A 0.30 0.29 -62.1 0 0 485.43 593.72&#10;  C 493.41 563.15 488.07 532.40 470.07 506.82&#10;  C 448.82 476.64 414.66 462.22 378.49 460.27&#10;  Q 344.82 458.44 303.55 457.43&#10;  Q 303.05 457.42 303.16 457.91&#10;  Q 307.58 477.70 311.96 497.50&#10;  C 318.79 528.29 334.27 564.80 356.23 588.28&#10;  C 382.21 616.04 418.70 629.02 457.26 627.72&#10;  Q 471.98 627.23 491.42 624.61&#10;  Q 491.88 624.55 491.62 624.16&#10;  Q 479.73 606.29 463.02 593.17&#10;  C 452.48 584.89 439.74 578.12 427.03 571.70&#10;  Q 415.45 565.84 401.78 557.17"/>
<path stroke="#52784d" d="&#10;  M 466.66 577.74&#10;  Q 471.79 547.32 455.77 522.47&#10;  C 439.06 496.55 411.11 482.59 380.24 480.85&#10;  Q 359.47 479.68 331.68 479.19&#10;  Q 331.50 479.19 331.33 479.12&#10;  Q 331.07 479.01 331.00 478.99&#10;  A 0.64 0.64 0.0 0 0 330.17 479.70&#10;  C 335.70 515.78 350.79 557.82 379.69 581.71&#10;  Q 407.75 604.91 445.39 606.23&#10;  A 0.29 0.28 61.0 0 0 445.54 605.70&#10;  Q 421.61 591.67 407.44 568.06&#10;  Q 405.74 565.22 401.78 557.17"/>
<path stroke="#90a08c" d="&#10;  M 509.97 412.21&#10;  C 503.04 441.18 506.16 469.68 515.65 497.65&#10;  Q 519.69 509.59 523.68 521.54&#10;  Q 533.81 551.92 535.46 584.01&#10;  A 0.12 0.12 0.0 0 0 535.69 584.05&#10;  Q 537.92 579.06 540.49 574.21&#10;  C 556.76 543.60 572.24 512.12 585.33 480.41&#10;  Q 591.15 466.29 597.30 445.99&#10;  Q 608.23 409.95 607.99 373.37"/>
<path stroke="#52784d" d="&#10;  M 607.99 373.37&#10;  Q 609.34 338.43 597.61 305.18&#10;  A 1.61 1.60 -29.3 0 1 598.12 303.38&#10;  L 612.08 292.23&#10;  A 0.79 0.78 59.5 0 1 613.30 292.55&#10;  Q 622.13 313.95 626.60 337.00"/>
<path stroke="#90a08c" d="&#10;  M 626.60 337.00&#10;  C 630.56 365.12 630.39 394.43 624.91 422.34&#10;  C 619.01 452.46 608.67 481.34 595.76 509.13&#10;  Q 595.55 509.57 596.01 509.39&#10;  Q 605.42 505.73 612.87 501.11"/>
<path stroke="#52784d" d="&#10;  M 612.87 501.11&#10;  C 629.67 492.15 641.22 481.13 654.32 469.25&#10;  A 0.79 0.78 -17.4 0 1 655.63 469.93&#10;  C 654.30 479.89 650.94 488.69 644.78 497.04&#10;  Q 622.47 527.22 585.26 536.85"/>
<path stroke="#90a08c" d="&#10;  M 585.26 536.85&#10;  Q 583.23 537.09 581.94 539.69&#10;  Q 574.96 553.74 572.63 558.63&#10;  Q 572.37 559.17 572.97 559.09&#10;  Q 601.45 555.42 623.58 540.86&#10;  Q 660.31 516.70 666.85 472.31"/>
<path stroke="#52784d" d="&#10;  M 666.85 472.31&#10;  Q 670.13 448.99 667.40 425.75&#10;  Q 662.79 386.61 650.97 349.02&#10;  Q 637.54 306.29 620.35 264.93&#10;  Q 618.72 261.02 616.78 257.24&#10;  A 0.56 0.55 53.1 0 0 615.88 257.11&#10;  C 599.38 274.75 583.78 293.19 567.99 311.46&#10;  Q 543.22 340.13 524.53 373.03&#10;  Q 514.74 390.26 509.97 412.21"/>
<path stroke="#b9ccac" d="&#10;  M 666.85 472.31&#10;  L 666.67 471.60&#10;  A 0.24 0.23 45.6 0 0 666.21 471.59&#10;  C 662.95 484.40 654.74 495.16 645.37 505.38&#10;  Q 624.49 528.15 595.47 535.58&#10;  Q 589.64 537.07 585.26 536.85"/>
<path stroke="#b9ccac" d="&#10;  M 612.87 501.11&#10;  Q 618.83 487.47 624.16 474.73&#10;  C 638.33 440.84 643.07 404.33 635.55 368.18&#10;  Q 632.21 352.14 627.63 336.47&#10;  Q 627.48 335.94 627.02 336.25&#10;  Q 626.66 336.49 626.60 337.00"/>
<path stroke="#b9ccac" d="&#10;  M 607.99 373.37&#10;  Q 602.70 395.77 593.57 416.03&#10;  C 577.39 451.96 557.25 486.07 538.67 520.83&#10;  Q 538.41 521.32 538.03 520.90&#10;  C 525.32 506.69 517.52 485.82 513.85 467.38&#10;  Q 509.03 443.17 510.76 414.25&#10;  Q 510.92 411.51 509.97 412.21"/>
</g>
<path fill="#294c2d" d="&#10;  M 558.89 583.91&#10;  Q 547.27 606.76 540.28 631.57&#10;  Q 538.25 638.80 535.73 651.02&#10;  C 532.19 668.16 528.98 686.00 524.90 702.49&#10;  Q 516.13 737.98 502.50 771.95&#10;  Q 502.33 772.36 501.89 772.36&#10;  L 477.77 772.42&#10;  Q 476.81 772.42 477.21 771.55&#10;  Q 496.69 729.58 506.89 684.03&#10;  Q 522.20 615.68 509.56 546.74&#10;  Q 508.79 542.51 506.16 533.58&#10;  C 502.46 521.01 496.53 506.01 493.35 496.17&#10;  Q 474.21 436.97 498.07 381.05&#10;  Q 510.16 352.73 530.89 325.15&#10;  C 558.96 287.82 591.12 254.11 622.34 219.57&#10;  Q 622.92 218.93 623.27 219.72&#10;  Q 647.55 274.92 666.92 332.01&#10;  C 678.76 366.94 688.06 407.14 689.52 444.50&#10;  C 690.22 462.46 687.77 483.10 681.34 500.29&#10;  Q 661.90 552.33 607.98 571.83&#10;  Q 584.55 580.30 560.03 583.12&#10;  A 1.47 1.47 0.0 0 0 558.89 583.91&#10;  Z&#10;  M 509.97 412.21&#10;  C 503.04 441.18 506.16 469.68 515.65 497.65&#10;  Q 519.69 509.59 523.68 521.54&#10;  Q 533.81 551.92 535.46 584.01&#10;  A 0.12 0.12 0.0 0 0 535.69 584.05&#10;  Q 537.92 579.06 540.49 574.21&#10;  C 556.76 543.60 572.24 512.12 585.33 480.41&#10;  Q 591.15 466.29 597.30 445.99&#10;  Q 608.23 409.95 607.99 373.37&#10;  Q 609.34 338.43 597.61 305.18&#10;  A 1.61 1.60 -29.3 0 1 598.12 303.38&#10;  L 612.08 292.23&#10;  A 0.79 0.78 59.5 0 1 613.30 292.55&#10;  Q 622.13 313.95 626.60 337.00&#10;  C 630.56 365.12 630.39 394.43 624.91 422.34&#10;  C 619.01 452.46 608.67 481.34 595.76 509.13&#10;  Q 595.55 509.57 596.01 509.39&#10;  Q 605.42 505.73 612.87 501.11&#10;  C 629.67 492.15 641.22 481.13 654.32 469.25&#10;  A 0.79 0.78 -17.4 0 1 655.63 469.93&#10;  C 654.30 479.89 650.94 488.69 644.78 497.04&#10;  Q 622.47 527.22 585.26 536.85&#10;  Q 583.23 537.09 581.94 539.69&#10;  Q 574.96 553.74 572.63 558.63&#10;  Q 572.37 559.17 572.97 559.09&#10;  Q 601.45 555.42 623.58 540.86&#10;  Q 660.31 516.70 666.85 472.31&#10;  Q 670.13 448.99 667.40 425.75&#10;  Q 662.79 386.61 650.97 349.02&#10;  Q 637.54 306.29 620.35 264.93&#10;  Q 618.72 261.02 616.78 257.24&#10;  A 0.56 0.55 53.1 0 0 615.88 257.11&#10;  C 599.38 274.75 583.78 293.19 567.99 311.46&#10;  Q 543.22 340.13 524.53 373.03&#10;  Q 514.74 390.26 509.97 412.21&#10;  Z"/>
<path fill="#7ba46d" d="&#10;  M 666.85 472.31&#10;  L 666.67 471.60&#10;  A 0.24 0.23 45.6 0 0 666.21 471.59&#10;  C 662.95 484.40 654.74 495.16 645.37 505.38&#10;  Q 624.49 528.15 595.47 535.58&#10;  Q 589.64 537.07 585.26 536.85&#10;  Q 622.47 527.22 644.78 497.04&#10;  C 650.94 488.69 654.30 479.89 655.63 469.93&#10;  A 0.79 0.78 -17.4 0 0 654.32 469.25&#10;  C 641.22 481.13 629.67 492.15 612.87 501.11&#10;  Q 618.83 487.47 624.16 474.73&#10;  C 638.33 440.84 643.07 404.33 635.55 368.18&#10;  Q 632.21 352.14 627.63 336.47&#10;  Q 627.48 335.94 627.02 336.25&#10;  Q 626.66 336.49 626.60 337.00&#10;  Q 622.13 313.95 613.30 292.55&#10;  A 0.79 0.78 59.5 0 0 612.08 292.23&#10;  L 598.12 303.38&#10;  A 1.61 1.60 -29.3 0 0 597.61 305.18&#10;  Q 609.34 338.43 607.99 373.37&#10;  Q 602.70 395.77 593.57 416.03&#10;  C 577.39 451.96 557.25 486.07 538.67 520.83&#10;  Q 538.41 521.32 538.03 520.90&#10;  C 525.32 506.69 517.52 485.82 513.85 467.38&#10;  Q 509.03 443.17 510.76 414.25&#10;  Q 510.92 411.51 509.97 412.21&#10;  Q 514.74 390.26 524.53 373.03&#10;  Q 543.22 340.13 567.99 311.46&#10;  C 583.78 293.19 599.38 274.75 615.88 257.11&#10;  A 0.56 0.55 53.1 0 1 616.78 257.24&#10;  Q 618.72 261.02 620.35 264.93&#10;  Q 637.54 306.29 650.97 349.02&#10;  Q 662.79 386.61 667.40 425.75&#10;  Q 670.13 448.99 666.85 472.31&#10;  Z"/>
<path fill="#294c2d" d="&#10;  M 466.66 577.74&#10;  Q 471.79 547.32 455.77 522.47&#10;  C 439.06 496.55 411.11 482.59 380.24 480.85&#10;  Q 359.47 479.68 331.68 479.19&#10;  Q 331.50 479.19 331.33 479.12&#10;  Q 331.07 479.01 331.00 478.99&#10;  A 0.64 0.64 0.0 0 0 330.17 479.70&#10;  C 335.70 515.78 350.79 557.82 379.69 581.71&#10;  Q 407.75 604.91 445.39 606.23&#10;  A 0.29 0.28 61.0 0 0 445.54 605.70&#10;  Q 421.61 591.67 407.44 568.06&#10;  Q 405.74 565.22 401.78 557.17&#10;  Q 415.45 565.84 427.03 571.70&#10;  C 439.74 578.12 452.48 584.89 463.02 593.17&#10;  Q 479.73 606.29 491.62 624.16&#10;  Q 491.88 624.55 491.42 624.61&#10;  Q 471.98 627.23 457.26 627.72&#10;  C 418.70 629.02 382.21 616.04 356.23 588.28&#10;  C 334.27 564.80 318.79 528.29 311.96 497.50&#10;  Q 307.58 477.70 303.16 457.91&#10;  Q 303.05 457.42 303.55 457.43&#10;  Q 344.82 458.44 378.49 460.27&#10;  C 414.66 462.22 448.82 476.64 470.07 506.82&#10;  C 488.07 532.40 493.41 563.15 485.43 593.72&#10;  A 0.30 0.29 -62.1 0 1 484.95 593.87&#10;  L 466.66 577.74&#10;  Z"/>
<path fill="#7ba46d" d="&#10;  M 466.66 577.74&#10;  C 447.49 564.49 424.48 553.20 409.34 542.17&#10;  Q 384.59 524.15 359.45 499.06&#10;  Q 356.95 496.57 353.21 497.89&#10;  Q 352.71 498.06 352.91 498.55&#10;  Q 359.94 515.91 373.40 531.35&#10;  Q 387.09 547.07 401.78 557.17&#10;  Q 405.74 565.22 407.44 568.06&#10;  Q 421.61 591.67 445.54 605.70&#10;  A 0.29 0.28 61.0 0 1 445.39 606.23&#10;  Q 407.75 604.91 379.69 581.71&#10;  C 350.79 557.82 335.70 515.78 330.17 479.70&#10;  A 0.64 0.64 0.0 0 1 331.00 478.99&#10;  Q 331.07 479.01 331.33 479.12&#10;  Q 331.50 479.19 331.68 479.19&#10;  Q 359.47 479.68 380.24 480.85&#10;  C 411.11 482.59 439.06 496.55 455.77 522.47&#10;  Q 471.79 547.32 466.66 577.74&#10;  Z"/>
</svg>
